<svg id="Layer_1" data-name="Layer 1" xmlns="http://www.w3.org/2000/svg" viewBox="0 0 106.22 119.76">
  <title>logo</title>
  <g>
    <path d="M73.11,10.12V129.88l17-17V96a23.81,23.81,0,0,0,23.08-6.16l1.5-1.51h0l1.45-1.44a23.85,23.85,0,0,0,0-33.72ZM101.69,75.4c-4.84,4.84-8.43,2.68-11.58-.25V52.41l9.73,9.72C103.42,65.73,107.42,69.68,101.69,75.4Z" transform="translate(-16.89 -10.12)" fill="currentColor"/>
    <path d="M49.9,27.14V87.6l-9.73-9.73c-3.6-3.59-7.59-7.53-1.85-13.28C41,61.87,43.44,61.3,45.67,62V47.57a4.3,4.3,0,0,0-3.15-4l-.17,0-.51-.08a7.31,7.31,0,0,0-1.76,0,23.75,23.75,0,0,0-13.22,6.7l-2.68,2.68h0l-.3.3a23.83,23.83,0,0,0,0,33.72l43,43V10.12l-17,17v0Z" transform="translate(-16.89 -10.12)" fill="currentColor"/>
  </g>
</svg>
